<?xml version="1.0" standalone="no"?>
<!DOCTYPE svg PUBLIC "-//W3C//DTD SVG 20010904//EN"
 "http://www.w3.org/TR/2001/REC-SVG-20010904/DTD/svg10.dtd">
<svg version="1.0"
    xmlns="http://www.w3.org/2000/svg" width="1800.000000pt" height="1800.000000pt" viewBox="0 0 1800.000000 1800.000000" preserveAspectRatio="xMidYMid meet">

    <g transform="translate(0.000000,1800.000000) scale(0.100000,-0.100000)" fill="#D3D3D3" stroke="none">
        <path d="M890 17675 c-249 -50 -472 -236 -564 -469 -101 -254 -64 -544 97
-761 17 -22 1705 -1715 3751 -3762 l3721 -3723 -3746 -3747 c-3706 -3708
-3746 -3749 -3787 -3828 -71 -140 -87 -209 -87 -370 0 -104 5 -157 19 -205 57
-204 197 -380 386 -484 189 -103 452 -117 661 -36 159 62 -59 -150 3931 3839
l3728 3726 3727 -3726 c3299 -3298 3737 -3732 3806 -3774 385 -236 882 -110
1102 280 60 106 87 205 93 337 7 169 -15 266 -95 423 -34 66 -270 304 -3782
3818 l-3746 3747 3716 3718 c2044 2044 3734 3740 3756 3768 49 64 107 181 129
259 22 82 30 261 14 349 -48 274 -257 509 -535 603 -73 25 -93 27 -230 27
-131 0 -160 -3 -231 -25 -45 -14 -117 -45 -160 -69 -75 -42 -283 -248 -3821
-3784 l-3743 -3741 -3742 3740 c-2882 2880 -3756 3748 -3800 3774 -170 99
-379 134 -568 96z"/>
    </g>
</svg>
